<svg id="visual" viewBox="0 0 450 900" width="450" height="900" xmlns="http://www.w3.org/2000/svg" xmlns:xlink="http://www.w3.org/1999/xlink" version="1.1"><rect x="0" y="0" width="450" height="900" fill="#001220"></rect><path d="M80 0L75 129L101 257L87 386L113 514L84 643L97 771L72 900L0 900L0 771L0 643L0 514L0 386L0 257L0 129L0 0Z" fill="#f5730a"></path><path d="M61 0L87 129L83 257L65 386L90 514L75 643L65 771L76 900L0 900L0 771L0 643L0 514L0 386L0 257L0 129L0 0Z" fill="#db393b"></path><path d="M50 0L53 129L47 257L67 386L45 514L49 643L52 771L73 900L0 900L0 771L0 643L0 514L0 386L0 257L0 129L0 0Z" fill="#ab0650"></path><path d="M37 0L36 129L29 257L31 386L29 514L47 643L37 771L47 900L0 900L0 771L0 643L0 514L0 386L0 257L0 129L0 0Z" fill="#6d0354"></path><path d="M15 0L33 129L31 257L19 386L21 514L27 643L26 771L24 900L0 900L0 771L0 643L0 514L0 386L0 257L0 129L0 0Z" fill="#2a0b45"></path></svg>