<?xml version="1.0" encoding="UTF-8"?>
<!DOCTYPE svg PUBLIC "-//W3C//DTD SVG 1.1//EN" "http://www.w3.org/Graphics/SVG/1.1/DTD/svg11.dtd">
<svg xmlns="http://www.w3.org/2000/svg" version="1.1" width="286px" height="286px" style="shape-rendering:geometricPrecision; text-rendering:geometricPrecision; image-rendering:optimizeQuality; fill-rule:evenodd; clip-rule:evenodd" xmlns:xlink="http://www.w3.org/1999/xlink">
<g><path style="opacity:0.004" fill="#fefffe" d="M 102.5,1.5 C 103.251,0.426544 104.251,0.259877 105.5,1C 104.648,2.72835 103.648,2.89502 102.5,1.5 Z"/></g>
<g><path style="opacity:0.009" fill="#fbfaf7" d="M 126.5,0.5 C 126.5,2.16667 126.5,3.83333 126.5,5.5C 123.833,5.83333 121.167,6.16667 118.5,6.5C 118.5,5.83333 118.5,5.16667 118.5,4.5C 119.791,3.52717 119.791,2.52717 118.5,1.5C 121.086,0.519979 123.753,0.186646 126.5,0.5 Z"/></g>
<g><path style="opacity:0.004" fill="#fefffe" d="M 137.5,0.5 C 140.001,0.510921 140.168,1.17759 138,2.5C 137.536,1.90558 137.369,1.23891 137.5,0.5 Z"/></g>
<g><path style="opacity:0.012" fill="#dcdad7" d="M 118.5,4.5 C 118.5,5.16667 118.5,5.83333 118.5,6.5C 104.497,8.83461 91.1633,13.1679 78.5,19.5C 78.5,19.1667 78.5,18.8333 78.5,18.5C 86.9602,13.6171 95.9602,9.78381 105.5,7C 107.624,5.87827 109.457,4.37827 111,2.5C 113.301,3.86721 115.801,4.53388 118.5,4.5 Z"/></g>
<g><path style="opacity:0.999" fill="#fed25c" d="M 196.5,15.5 C 200.182,18.0078 204.182,20.0078 208.5,21.5C 209.659,23.2503 211.326,24.2503 213.5,24.5C 233.259,37.5914 249.259,54.2581 261.5,74.5C 264.775,81.3839 267.775,88.3839 270.5,95.5C 271.512,98.2521 272.512,100.919 273.5,103.5C 273.565,106.428 274.232,109.095 275.5,111.5C 275.753,115.04 276.419,118.373 277.5,121.5C 277.5,121.833 277.5,122.167 277.5,122.5C 277.216,124.415 277.549,126.081 278.5,127.5C 278.5,130.167 278.5,132.833 278.5,135.5C 278.645,146.225 277.978,156.892 276.5,167.5C 271.648,187.725 263.314,206.392 251.5,223.5C 249.738,224.262 248.738,225.596 248.5,227.5C 246.086,228.911 244.419,230.911 243.5,233.5C 242.833,234.833 241.833,235.833 240.5,236.5C 238.5,237.833 236.833,239.5 235.5,241.5C 234.167,241.5 233.5,242.167 233.5,243.5C 230.911,244.419 228.911,246.086 227.5,248.5C 225.596,248.738 224.262,249.738 223.5,251.5C 221.973,251.427 220.973,252.094 220.5,253.5C 220.5,254.167 220.167,254.5 219.5,254.5C 217.973,254.427 216.973,255.094 216.5,256.5C 214.326,256.75 212.659,257.75 211.5,259.5C 211.158,260.338 210.492,260.672 209.5,260.5C 207.973,260.427 206.973,261.094 206.5,262.5C 204.819,264.008 202.819,265.008 200.5,265.5C 197.759,265.707 195.426,266.707 193.5,268.5C 188.466,269.398 183.799,271.065 179.5,273.5C 172.947,274.343 166.614,275.676 160.5,277.5C 151.972,279.422 143.305,279.755 134.5,278.5C 130.702,277.517 126.702,277.183 122.5,277.5C 122.167,277.5 121.833,277.5 121.5,277.5C 119.735,276.539 117.735,276.205 115.5,276.5C 104.432,273.31 93.4324,269.643 82.5,265.5C 80.8185,263.992 78.8185,262.992 76.5,262.5C 73.5063,260 70.173,258 66.5,256.5C 64.8525,254.674 62.8525,253.34 60.5,252.5C 57.1294,249.129 53.4627,246.129 49.5,243.5C 45.8051,239.474 42.1384,235.474 38.5,231.5C 31.7526,223.658 25.7526,215.325 20.5,206.5C 18.2232,201.613 16.2232,196.613 14.5,191.5C 13.1951,188.947 12.1951,186.28 11.5,183.5C 10.1241,177.973 8.45748,172.64 6.5,167.5C 6.63228,164.43 6.29895,161.43 5.5,158.5C 5.81277,154.958 5.47944,151.625 4.5,148.5C 4.5,146.833 4.5,145.167 4.5,143.5C 4.5,140.833 4.5,138.167 4.5,135.5C 4.40132,132.763 4.73465,130.096 5.5,127.5C 5.40132,124.763 5.73465,122.096 6.5,119.5C 7.51293,113.754 8.84626,108.088 10.5,102.5C 18.2606,77.6375 31.5939,56.3041 50.5,38.5C 59.4955,31.6689 68.8288,25.3356 78.5,19.5C 91.1633,13.1679 104.497,8.83461 118.5,6.5C 121.167,6.16667 123.833,5.83333 126.5,5.5C 150.6,3.32374 173.933,6.65707 196.5,15.5 Z"/></g>
<g><path style="opacity:0.027" fill="#e4dfd5" d="M 126.5,0.5 C 128.942,0.353695 129.609,1.18703 128.5,3C 144.31,2.79025 159.976,4.12358 175.5,7C 182.933,8.97256 189.933,11.8059 196.5,15.5C 173.933,6.65707 150.6,3.32374 126.5,5.5C 126.5,3.83333 126.5,2.16667 126.5,0.5 Z"/></g>
<g><path style="opacity:0.004" fill="#fefffe" d="M 240.5,15.5 C 239.833,15.5 239.167,15.5 238.5,15.5C 238.5,13.1667 238.5,10.8333 238.5,8.5C 239.787,9.7683 240.787,9.43497 241.5,7.5C 242.308,7.80762 242.975,8.30762 243.5,9C 242.313,10.0195 241.313,11.1861 240.5,12.5C 241.791,13.5272 241.791,14.5272 240.5,15.5 Z"/></g>
<g><path style="opacity:0.004" fill="#cdcdcd" d="M 254.5,7.5 C 254.5,10.1667 254.5,12.8333 254.5,15.5C 256.167,15.5 257.833,15.5 259.5,15.5C 260.5,15.5 261.5,15.5 262.5,15.5C 262.378,19.8383 262.045,20.1716 261.5,16.5C 259.208,16.2436 257.041,16.5769 255,17.5C 251.528,14.582 248.528,14.9154 246,18.5C 243.666,16.98 241.166,15.98 238.5,15.5C 239.167,15.5 239.833,15.5 240.5,15.5C 244.576,15.8793 248.243,14.8793 251.5,12.5C 253.366,13.5628 253.866,12.8961 253,10.5C 252.15,11.4239 251.15,11.4239 250,10.5C 247.119,12.8357 245.952,11.8357 246.5,7.5C 248.277,7.78627 249.944,8.45293 251.5,9.5C 252.739,9.05758 253.739,8.39092 254.5,7.5 Z"/></g>
<g><path style="opacity:0.004" fill="#fafafa" d="M 254.5,7.5 C 258.353,7.75956 262.02,7.92623 265.5,8C 263.695,8.97201 262.028,10.1387 260.5,11.5C 254.313,10.5654 253.98,11.8987 259.5,15.5C 257.833,15.5 256.167,15.5 254.5,15.5C 254.5,12.8333 254.5,10.1667 254.5,7.5 Z"/></g>
<g><path style="opacity:0.004" fill="#d3d3d3" d="M 271.5,8.5 C 271.007,10.8056 270.674,13.139 270.5,15.5C 268.143,15.6633 265.81,15.4966 263.5,15C 265.473,14.5045 267.473,14.3379 269.5,14.5C 269.337,12.1432 269.503,9.80982 270,7.5C 270.383,8.05596 270.883,8.38929 271.5,8.5 Z"/></g>
<g><path style="opacity:0.004" fill="#f2f2f2" d="M 271.5,8.5 C 273.686,7.03548 276.019,6.70215 278.5,7.5C 276.602,8.12685 274.269,8.46018 271.5,8.5 Z"/></g>
<g><path style="opacity:0.004" fill="#cbcccb" d="M 75.5,8.5 C 76.8333,9.16667 76.8333,9.16667 75.5,8.5 Z"/></g>
<g><path style="opacity:0.004" fill="#cbcccb" d="M 238.5,8.5 C 238.5,10.8333 238.5,13.1667 238.5,15.5C 235.813,15.6641 233.146,15.4974 230.5,15C 232.81,14.5034 235.143,14.3367 237.5,14.5C 237.52,12.857 236.853,11.5237 235.5,10.5C 236.357,9.57481 237.357,8.90814 238.5,8.5 Z"/></g>
<g><path style="opacity:0.004" fill="#cbcccb" d="M 232.5,10.5 C 232.897,9.47498 233.563,9.30831 234.5,10C 233.906,10.4643 233.239,10.631 232.5,10.5 Z"/></g>
<g><path style="opacity:0.004" fill="#cbcccb" d="M 266.5,10.5 C 266.897,9.47498 267.563,9.30831 268.5,10C 267.906,10.4643 267.239,10.631 266.5,10.5 Z"/></g>
<g><path style="opacity:0.004" fill="#fefffe" d="M 277.5,9.5 C 278.525,9.89657 278.692,10.5632 278,11.5C 277.536,10.9056 277.369,10.2389 277.5,9.5 Z"/></g>
<g><path style="opacity:0.004" fill="#cbcccb" d="M 76.5,11.5 C 77.8333,12.1667 77.8333,12.1667 76.5,11.5 Z"/></g>
<g><path style="opacity:0.004" fill="#cbcccb" d="M 55.5,14.5 C 56.8333,15.1667 56.8333,15.1667 55.5,14.5 Z"/></g>
<g><path style="opacity:0.004" fill="#cbcccb" d="M 70.5,14.5 C 71.8333,15.1667 71.8333,15.1667 70.5,14.5 Z"/></g>
<g><path style="opacity:0.004" fill="#cbcccb" d="M 63.5,15.5 C 64.525,15.8966 64.6917,16.5632 64,17.5C 63.5357,16.9056 63.369,16.2389 63.5,15.5 Z"/></g>
<g><path style="opacity:0.004" fill="#cbcccb" d="M 70.5,15.5 C 70.5332,18.742 69.1998,19.0754 66.5,16.5C 67.8605,16.2124 69.1938,15.879 70.5,15.5 Z"/></g>
<g><path style="opacity:0.004" fill="#cbcccb" d="M 270.5,15.5 C 271.239,15.369 271.906,15.5357 272.5,16C 271.563,16.6917 270.897,16.525 270.5,15.5 Z"/></g>
<g><path style="opacity:0.004" fill="#cbcccb" d="M 273.5,16.5 C 274.251,15.4265 275.251,15.2599 276.5,16C 275.552,16.4828 274.552,16.6495 273.5,16.5 Z"/></g>
<g><path style="opacity:0.008" fill="#cbcccb" d="M 277.5,15.5 C 278.833,16.1667 278.833,16.1667 277.5,15.5 Z"/></g>
<g><path style="opacity:0.231" fill="#eae3d7" d="M 196.5,15.5 C 201.086,16.4598 205.086,18.4598 208.5,21.5C 204.182,20.0078 200.182,18.0078 196.5,15.5 Z"/></g>
<g><path style="opacity:0.004" fill="#cbcccb" d="M 277.5,17.5 C 278.833,18.1667 278.833,18.1667 277.5,17.5 Z"/></g>
<g><path style="opacity:1" fill="#e3ac52" d="M 88.5,20.5 C 89.2389,20.369 89.9056,20.5357 90.5,21C 75.7801,46.5995 70.2801,74.0995 74,103.5C 67.4605,95.5773 60.7938,95.5773 54,103.5C 51.2404,110.881 53.407,116.381 60.5,120C 67.8812,121.311 72.8812,118.477 75.5,111.5C 76.7545,116.017 78.0878,120.517 79.5,125C 65.8631,135.725 63.0298,148.892 71,164.5C 80.8507,176.665 93.0174,179.832 107.5,174C 119.53,187.034 133.53,197.368 149.5,205C 154.823,216.251 162.989,219.085 174,213.5C 187.033,215.942 200.2,217.109 213.5,217C 221.589,222.59 229.922,222.923 238.5,218C 242.248,212.907 247.081,209.407 253,207.5C 253.5,207.833 254,208.167 254.5,208.5C 224.367,255.232 181.367,276.399 125.5,272C 117.95,271.224 110.617,269.557 103.5,267C 118.916,265.996 125.75,257.829 124,242.5C 118.014,229.725 108.514,226.225 95.5,232C 86.5989,239.848 85.0989,249.014 91,259.5C 92.5578,261.359 94.3911,262.859 96.5,264C 52.1868,247.338 24.3535,215.838 13,169.5C 3.17667,101.811 28.3433,52.1438 88.5,20.5 Z"/></g>
<g><path style="opacity:1" fill="#e3ad52" d="M 176.5,20.5 C 185.153,19.9867 188.653,23.9867 187,32.5C 184.774,36.8608 181.274,38.3608 176.5,37C 171.931,34.4586 170.431,30.6253 172,25.5C 173.025,23.313 174.525,21.6464 176.5,20.5 Z"/></g>
<g><path style="opacity:0.049" fill="#d4d0c7" d="M 208.5,21.5 C 210.674,21.7497 212.341,22.7497 213.5,24.5C 211.326,24.2503 209.659,23.2503 208.5,21.5 Z"/></g>
<g><path style="opacity:0.004" fill="#cbcccb" d="M 238.5,23.5 C 239.946,22.3871 241.613,22.2204 243.5,23C 241.866,23.4935 240.199,23.6602 238.5,23.5 Z"/></g>
<g><path style="opacity:0.004" fill="#cbcccb" d="M 254.5,23.5 C 255.251,22.4265 256.251,22.2599 257.5,23C 256.552,23.4828 255.552,23.6495 254.5,23.5 Z"/></g>
<g><path style="opacity:0.015" fill="#f4f0ea" d="M 78.5,18.5 C 78.5,18.8333 78.5,19.1667 78.5,19.5C 68.8288,25.3356 59.4955,31.6689 50.5,38.5C 54.3249,33.5148 58.9916,29.3482 64.5,26C 64.1667,25.6667 63.8333,25.3333 63.5,25C 67.0401,24.3996 69.7068,22.5663 71.5,19.5C 72.1667,19.8333 72.8333,20.1667 73.5,20.5C 75.0754,19.5435 76.742,18.8769 78.5,18.5 Z"/></g>
<g><path style="opacity:0.004" fill="#cbcccb" d="M 247.5,24.5 C 247.897,23.475 248.563,23.3083 249.5,24C 248.906,24.4643 248.239,24.631 247.5,24.5 Z"/></g>
<g><path style="opacity:0.004" fill="#cbcccb" d="M 254.5,23.5 C 254.631,24.2389 254.464,24.9056 254,25.5C 253.308,24.5632 253.475,23.8966 254.5,23.5 Z"/></g>
<g><path style="opacity:0.004" fill="#cbcccb" d="M 59.5,25.5 C 59.8966,24.475 60.5632,24.3083 61.5,25C 60.9056,25.4643 60.2389,25.631 59.5,25.5 Z"/></g>
<g><path style="opacity:0.004" fill="#cbcccb" d="M 261.5,31.5 C 262.833,32.1667 262.833,32.1667 261.5,31.5 Z"/></g>
<g><path style="opacity:0.004" fill="#cbcccb" d="M 274.5,31.5 C 275.833,32.1667 275.833,32.1667 274.5,31.5 Z"/></g>
<g><path style="opacity:0.004" fill="#cbcccb" d="M 277.5,31.5 C 278.833,32.1667 278.833,32.1667 277.5,31.5 Z"/></g>
<g><path style="opacity:0.004" fill="#cbcccb" d="M 254.5,38.5 C 255.833,39.1667 255.833,39.1667 254.5,38.5 Z"/></g>
<g><path style="opacity:0.042" fill="#d8d4cd" d="M 213.5,24.5 C 223.222,29.1983 231.889,35.5316 239.5,43.5C 245.575,50.7313 251.741,57.7313 258,64.5C 258.511,68.5251 260.677,71.1917 264.5,72.5C 264.145,73.5223 263.478,74.189 262.5,74.5C 262.167,73.1667 261.833,73.1667 261.5,74.5C 249.259,54.2581 233.259,37.5914 213.5,24.5 Z"/></g>
<g><path style="opacity:0.004" fill="#cbcccb" d="M 277.5,47.5 C 278.833,48.1667 278.833,48.1667 277.5,47.5 Z"/></g>
<g><path style="opacity:0.004" fill="#d7d7d7" d="M 270.5,55.5 C 271.946,54.3871 273.613,54.2204 275.5,55C 274.038,56.6279 272.372,56.7946 270.5,55.5 Z"/></g>
<g><path style="opacity:1" fill="#e3ac52" d="M 105.5,59.5 C 125.719,58.5556 137.385,68.0556 140.5,88C 138.762,106.239 128.762,115.739 110.5,116.5C 91.5101,114.34 82.3434,103.673 83,84.5C 85.8058,71.8645 93.3058,63.5311 105.5,59.5 Z"/></g>
<g><path style="opacity:0.004" fill="#cbcccb" d="M 270.5,63.5 C 273.001,63.5109 273.168,64.1776 271,65.5C 270.536,64.9056 270.369,64.2389 270.5,63.5 Z"/></g>
<g><path style="opacity:0.004" fill="#cbcccb" d="M 277.5,64.5 C 276.151,65.7965 274.818,65.6298 273.5,64C 274.928,63.4209 276.262,63.5876 277.5,64.5 Z"/></g>
<g><path style="opacity:0.004" fill="#cbcccb" d="M 277.5,63.5 C 278.833,64.1667 278.833,64.1667 277.5,63.5 Z"/></g>
<g><path style="opacity:0.004" fill="#fefffe" d="M 4.5,71.5 C 5.83333,72.1667 5.83333,72.1667 4.5,71.5 Z"/></g>
<g><path style="opacity:0.005" fill="#e8e6e3" d="M 50.5,38.5 C 31.5939,56.3041 18.2606,77.6375 10.5,102.5C 9.16667,102.833 7.83333,103.167 6.5,103.5C 6.5,100.833 6.5,98.1667 6.5,95.5C 6.5,94.1667 6.5,92.8333 6.5,91.5C 7.83333,90.5 7.83333,89.5 6.5,88.5C 7.16667,88.5 7.83333,88.5 8.5,88.5C 11.043,86.9772 13.043,84.8105 14.5,82C 13.1667,81.6667 11.8333,81.3333 10.5,81C 13.0099,79.9096 15.5099,78.743 18,77.5C 20.445,73.0777 23.1117,68.411 26,63.5C 32.9515,55.2296 40.1182,47.2296 47.5,39.5C 48.325,38.6143 49.325,38.281 50.5,38.5 Z M 8.5,88.5 C 10.7602,89.2376 10.9269,90.2376 9,91.5C 8.51722,90.552 8.35055,89.552 8.5,88.5 Z"/></g>
<g><path style="opacity:0.004" fill="#f0f0f0" d="M 270.5,70.5 C 272.585,71.3503 274.585,71.6837 276.5,71.5C 274.892,72.3184 273.225,72.9851 271.5,73.5C 270.614,72.675 270.281,71.675 270.5,70.5 Z"/></g>
<g><path style="opacity:0.004" fill="#cbcccb" d="M 274.5,79.5 C 275.833,80.1667 275.833,80.1667 274.5,79.5 Z"/></g>
<g><path style="opacity:0.004" fill="#fefffe" d="M 6.5,88.5 C 5.6365,89.463 4.96983,89.463 4.5,88.5C 5.2565,87.2267 5.92317,87.2267 6.5,88.5 Z"/></g>
<g><path style="opacity:0.004" fill="#f5f4f3" d="M 261.5,74.5 C 261.833,74.5 262.167,74.5 262.5,74.5C 265.705,80.3967 268.205,80.3967 270,74.5C 270.72,76.1124 270.554,77.6124 269.5,79C 270.672,79.4186 271.672,80.0853 272.5,81C 270.343,81.0781 268.343,81.2448 266.5,81.5C 267.236,83.5405 268.069,85.5405 269,87.5C 269.308,86.6919 269.808,86.0253 270.5,85.5C 272.667,86.7919 275,87.6253 277.5,88C 276.328,88.4186 275.328,89.0853 274.5,90C 275.527,91.8665 276.527,93.6998 277.5,95.5C 275.167,95.5 272.833,95.5 270.5,95.5C 267.775,88.3839 264.775,81.3839 261.5,74.5 Z"/></g>
<g><path style="opacity:0.004" fill="#fefffe" d="M 6.5,91.5 C 6.5,92.8333 6.5,94.1667 6.5,95.5C 4.16667,95.5 1.83333,95.5 -0.5,95.5C -0.5,94.8333 -0.5,94.1667 -0.5,93.5C 1.87343,93.862 4.20677,93.1953 6.5,91.5 Z"/></g>
<g><path style="opacity:0.004" fill="#cbcccb" d="M -0.5,95.5 C 1.83333,95.5 4.16667,95.5 6.5,95.5C 6.5,98.1667 6.5,100.833 6.5,103.5C 4.16667,103.5 1.83333,103.5 -0.5,103.5C -0.5,100.833 -0.5,98.1667 -0.5,95.5 Z"/></g>
<g><path style="opacity:1" fill="#e4ad52" d="M 61.5,100.5 C 69.5228,100.683 73.0228,104.683 72,112.5C 66.1207,119.49 60.7873,119.157 56,111.5C 55.1757,106.482 57.0091,102.815 61.5,100.5 Z"/></g>
<g><path style="opacity:0.004" fill="#fefffe" d="M 285.5,102.5 C 285.5,102.833 285.5,103.167 285.5,103.5C 284.83,103.019 284.83,102.685 285.5,102.5 Z"/></g>
<g><path style="opacity:0.004" fill="#fefffe" d="M -0.5,103.5 C 1.83333,103.5 4.16667,103.5 6.5,103.5C 6.5,106.167 6.5,108.833 6.5,111.5C 4.16667,111.5 1.83333,111.5 -0.5,111.5C -0.5,108.833 -0.5,106.167 -0.5,103.5 Z"/></g>
<g><path style="opacity:0.008" fill="#fdfaf7" d="M 273.5,103.5 C 275.167,103.5 276.833,103.5 278.5,103.5C 278.5,106.167 278.5,108.833 278.5,111.5C 277.202,110.884 276.202,110.884 275.5,111.5C 274.232,109.095 273.565,106.428 273.5,103.5 Z"/></g>
<g><path style="opacity:0.004" fill="#cdcdcc" d="M 270.5,95.5 C 272.833,95.5 275.167,95.5 277.5,95.5C 278.133,95.8795 278.8,96.2129 279.5,96.5C 278.652,98.4086 278.318,100.409 278.5,102.5C 280.484,102.383 282.15,103.05 283.5,104.5C 282.675,106.801 282.008,109.135 281.5,111.5C 280.5,111.5 279.5,111.5 278.5,111.5C 278.5,108.833 278.5,106.167 278.5,103.5C 276.833,103.5 275.167,103.5 273.5,103.5C 272.512,100.919 271.512,98.2521 270.5,95.5 Z"/></g>
<g><path style="opacity:0.005" fill="#cececc" d="M 10.5,102.5 C 8.84626,108.088 7.51293,113.754 6.5,119.5C 4.16667,119.5 1.83333,119.5 -0.5,119.5C -0.5,116.833 -0.5,114.167 -0.5,111.5C 1.83333,111.5 4.16667,111.5 6.5,111.5C 6.5,108.833 6.5,106.167 6.5,103.5C 7.83333,103.167 9.16667,102.833 10.5,102.5 Z"/></g>
<g><path style="opacity:0.004" fill="#fefffe" d="M 278.5,111.5 C 279.5,111.5 280.5,111.5 281.5,111.5C 282.376,111.369 283.043,111.702 283.5,112.5C 283.457,114.818 283.124,117.151 282.5,119.5C 280.901,119.768 279.568,119.434 278.5,118.5C 278.5,118.167 278.5,117.833 278.5,117.5C 278.5,115.5 278.5,113.5 278.5,111.5 Z"/></g>
<g><path style="opacity:0.004" fill="#fefffe" d="M 285.5,113.5 C 285.5,115.5 285.5,117.5 285.5,119.5C 284.167,117.5 284.167,115.5 285.5,113.5 Z"/></g>
<g><path style="opacity:0.008" fill="#fdfdfc" d="M -0.5,119.5 C 1.83333,119.5 4.16667,119.5 6.5,119.5C 5.73465,122.096 5.40132,124.763 5.5,127.5C 3.5,127.5 1.5,127.5 -0.5,127.5C -0.5,124.833 -0.5,122.167 -0.5,119.5 Z"/></g>
<g><path style="opacity:0.004" fill="#d0d0cf" d="M 278.5,111.5 C 278.5,113.5 278.5,115.5 278.5,117.5C 277.167,117.833 277.167,118.167 278.5,118.5C 279.568,119.434 280.901,119.768 282.5,119.5C 283.097,119.735 283.43,120.235 283.5,121C 282.726,123.154 282.059,125.321 281.5,127.5C 280.5,127.5 279.5,127.5 278.5,127.5C 277.549,126.081 277.216,124.415 277.5,122.5C 278.644,121.151 278.644,120.817 277.5,121.5C 276.419,118.373 275.753,115.04 275.5,111.5C 276.202,110.884 277.202,110.884 278.5,111.5 Z"/></g>
<g><path style="opacity:0.004" fill="#cbcccb" d="M 285.5,121.5 C 285.5,122.833 285.5,124.167 285.5,125.5C 284.167,124.167 284.167,122.833 285.5,121.5 Z"/></g>
<g><path style="opacity:1" fill="#e3ac52" d="M 136.5,121.5 C 150.915,121.661 156.082,128.661 152,142.5C 144.011,151.719 136.011,151.719 128,142.5C 124.218,132.741 127.051,125.741 136.5,121.5 Z"/></g>
<g><path style="opacity:1" fill="#e3ac52" d="M 86.5,125.5 C 101.38,123.018 111.547,128.684 117,142.5C 119.157,163.674 109.657,173.841 88.5,173C 73.0878,167.343 67.2545,156.51 71,140.5C 74.1058,133.225 79.2724,128.225 86.5,125.5 Z"/></g>
<g><path style="opacity:0.004" fill="#cdcccc" d="M -0.5,127.5 C 1.5,127.5 3.5,127.5 5.5,127.5C 4.73465,130.096 4.40132,132.763 4.5,135.5C 2.83333,135.5 1.16667,135.5 -0.5,135.5C -0.5,132.833 -0.5,130.167 -0.5,127.5 Z"/></g>
<g><path style="opacity:0.005" fill="#fefffe" d="M 278.5,127.5 C 279.5,127.5 280.5,127.5 281.5,127.5C 281.047,128.458 280.381,129.292 279.5,130C 281.32,131.689 283.32,131.855 285.5,130.5C 285.5,132.167 285.5,133.833 285.5,135.5C 284.008,133.078 282.008,132.412 279.5,133.5C 280.243,134.182 280.909,134.849 281.5,135.5C 280.5,135.5 279.5,135.5 278.5,135.5C 278.5,132.833 278.5,130.167 278.5,127.5 Z"/></g>
<g><path style="opacity:0.011" fill="#fefefd" d="M -0.5,135.5 C 1.16667,135.5 2.83333,135.5 4.5,135.5C 4.5,138.167 4.5,140.833 4.5,143.5C 2.83333,143.5 1.16667,143.5 -0.5,143.5C -0.5,140.833 -0.5,138.167 -0.5,135.5 Z"/></g>
<g><path style="opacity:0.004" fill="#cbcccb" d="M 285.5,140.5 C 285.5,140.833 285.5,141.167 285.5,141.5C 284.83,141.019 284.83,140.685 285.5,140.5 Z"/></g>
<g><path style="opacity:0.011" fill="#cdcdcc" d="M -0.5,143.5 C 1.16667,143.5 2.83333,143.5 4.5,143.5C 4.5,145.167 4.5,146.833 4.5,148.5C 4.5,149.5 4.5,150.5 4.5,151.5C 2.83333,151.5 1.16667,151.5 -0.5,151.5C -0.5,148.833 -0.5,146.167 -0.5,143.5 Z"/></g>
<g><path style="opacity:0.004" fill="#fefffe" d="M 283.5,144.5 C 284.833,145.167 284.833,145.167 283.5,144.5 Z"/></g>
<g><path style="opacity:0.004" fill="#fefffe" d="M 285.5,146.5 C 285.5,148.167 285.5,149.833 285.5,151.5C 284.167,149.833 284.167,148.167 285.5,146.5 Z"/></g>
<g><path style="opacity:0.005" fill="#fcfaf6" d="M 4.5,148.5 C 5.47944,151.625 5.81277,154.958 5.5,158.5C 3.6208,159.341 1.6208,159.675 -0.5,159.5C -0.5,156.833 -0.5,154.167 -0.5,151.5C 1.16667,151.5 2.83333,151.5 4.5,151.5C 4.5,150.5 4.5,149.5 4.5,148.5 Z"/></g>
<g><path style="opacity:0.004" fill="#dfdeda" d="M 278.5,135.5 C 279.5,135.5 280.5,135.5 281.5,135.5C 282.376,135.369 283.043,135.702 283.5,136.5C 280.942,138.12 280.942,139.62 283.5,141C 281.122,141.974 281.456,142.641 284.5,143C 283.944,143.383 283.611,143.883 283.5,144.5C 282.292,145.234 280.959,145.567 279.5,145.5C 278.872,149.158 280.206,151.658 283.5,153C 282.234,153.309 281.067,153.809 280,154.5C 279.714,156.999 279.881,159.165 280.5,161C 277.368,162.518 276.701,164.851 278.5,168C 275.737,176.123 273.07,184.289 270.5,192.5C 267.138,199.538 263.305,206.872 259,214.5C 256.958,217.94 254.458,220.94 251.5,223.5C 263.314,206.392 271.648,187.725 276.5,167.5C 277.978,156.892 278.645,146.225 278.5,135.5 Z"/></g>
<g><path style="opacity:0.007" fill="#cdcdcc" d="M 5.5,158.5 C 6.29895,161.43 6.63228,164.43 6.5,167.5C 4.16667,167.5 1.83333,167.5 -0.5,167.5C -0.5,164.833 -0.5,162.167 -0.5,159.5C 1.6208,159.675 3.6208,159.341 5.5,158.5 Z"/></g>
<g><path style="opacity:0.005" fill="#cbcccb" d="M -0.5,175.5 C 1.83333,175.5 4.16667,175.5 6.5,175.5C 6.5,178.167 6.5,180.833 6.5,183.5C 4.16667,183.5 1.83333,183.5 -0.5,183.5C -0.5,180.833 -0.5,178.167 -0.5,175.5 Z"/></g>
<g><path style="opacity:0.011" fill="#f7f4ef" d="M -0.5,167.5 C 1.83333,167.5 4.16667,167.5 6.5,167.5C 8.45748,172.64 10.1241,177.973 11.5,183.5C 10.0267,182.929 8.36002,182.929 6.5,183.5C 6.5,180.833 6.5,178.167 6.5,175.5C 4.16667,175.5 1.83333,175.5 -0.5,175.5C -0.5,172.833 -0.5,170.167 -0.5,167.5 Z"/></g>
<g><path style="opacity:1" fill="#e3ac52" d="M 221.5,181.5 C 238.682,181.18 246.182,189.513 244,206.5C 237.775,218.018 228.608,221.185 216.5,216C 205.019,205.964 204.686,195.631 215.5,185C 217.727,184.059 219.727,182.892 221.5,181.5 Z"/></g>
<g><path style="opacity:0.005" fill="#fefffe" d="M -0.5,183.5 C 1.83333,183.5 4.16667,183.5 6.5,183.5C 6.5,186.167 6.5,188.833 6.5,191.5C 4.83333,191.5 3.16667,191.5 1.5,191.5C 1.16667,191.5 0.833333,191.5 0.5,191.5C 0.166667,191.5 -0.166667,191.5 -0.5,191.5C -0.5,190.5 -0.5,189.5 -0.5,188.5C 1.22516,188.157 1.72516,187.157 1,185.5C 0.721579,186.416 0.221579,187.082 -0.5,187.5C -0.5,186.167 -0.5,184.833 -0.5,183.5 Z"/></g>
<g><path style="opacity:0.009" fill="#ceccc8" d="M 11.5,183.5 C 12.1951,186.28 13.1951,188.947 14.5,191.5C 11.8333,191.5 9.16667,191.5 6.5,191.5C 6.5,188.833 6.5,186.167 6.5,183.5C 8.36002,182.929 10.0267,182.929 11.5,183.5 Z"/></g>
<g><path style="opacity:1" fill="#e3ac52" d="M 161.5,189.5 C 172.205,189.698 177.038,195.032 176,205.5C 171.713,213.729 165.546,215.563 157.5,211C 151.116,202.202 152.45,195.036 161.5,189.5 Z"/></g>
<g><path style="opacity:0.004" fill="#d2d2d2" d="M -0.5,191.5 C -0.166667,191.5 0.166667,191.5 0.5,191.5C 0.833333,192.833 1.16667,192.833 1.5,191.5C 3.16667,191.5 4.83333,191.5 6.5,191.5C 6.5,192.833 6.5,194.167 6.5,195.5C 6.5,197.167 6.5,198.833 6.5,200.5C 3.87905,202.126 2.04572,201.459 1,198.5C 0.617425,199.056 0.117425,199.389 -0.5,199.5C -0.5,198.833 -0.5,198.167 -0.5,197.5C 2.56879,197.037 3.06879,195.704 1,193.5C 0.617425,194.056 0.117425,194.389 -0.5,194.5C -0.5,193.5 -0.5,192.5 -0.5,191.5 Z"/></g>
<g><path style="opacity:0.004" fill="#cbcccb" d="M 270.5,192.5 C 271.833,193.167 271.833,193.167 270.5,192.5 Z"/></g>
<g><path style="opacity:0.013" fill="#f7f6f5" d="M 6.5,191.5 C 9.16667,191.5 11.8333,191.5 14.5,191.5C 16.2232,196.613 18.2232,201.613 20.5,206.5C 18.6208,207.341 16.6208,207.675 14.5,207.5C 14.5,207.167 14.5,206.833 14.5,206.5C 14.5,204.167 14.5,201.833 14.5,199.5C 13.5,199.5 12.5,199.5 11.5,199.5C 11.0334,196.703 9.36674,195.369 6.5,195.5C 6.5,194.167 6.5,192.833 6.5,191.5 Z"/></g>
<g><path style="opacity:0.004" fill="#fefffe" d="M -0.5,200.5 C 0.833333,201.167 0.833333,201.167 -0.5,200.5 Z"/></g>
<g><path style="opacity:0.004" fill="#cbcccb" d="M 6.5,200.5 C 7.23891,200.369 7.90558,200.536 8.5,201C 7.56323,201.692 6.89657,201.525 6.5,200.5 Z"/></g>
<g><path style="opacity:0.004" fill="#cbcccb" d="M 270.5,207.5 C 278.176,207.456 278.342,208.123 271,209.5C 270.536,208.906 270.369,208.239 270.5,207.5 Z"/></g>
<g><path style="opacity:0.004" fill="#fefffe" d="M 4.5,215.5 C 5.83333,216.167 5.83333,216.167 4.5,215.5 Z"/></g>
<g><path style="opacity:0.004" fill="#cbcccb" d="M 6.5,215.5 C 8.64557,215.696 8.81224,216.696 7,218.5C 6.51722,217.552 6.35055,216.552 6.5,215.5 Z"/></g>
<g><path style="opacity:0.004" fill="#f2f2f2" d="M 14.5,214.5 C 15.5735,215.251 15.7401,216.251 15,217.5C 14.5172,216.552 14.3505,215.552 14.5,214.5 Z"/></g>
<g><path style="opacity:0.004" fill="#f7f7f7" d="M 271.5,214.5 C 272.756,214.461 273.756,214.961 274.5,216C 273.23,216.9 272.23,218.066 271.5,219.5C 270.334,217.833 270.334,216.166 271.5,214.5 Z"/></g>
<g><path style="opacity:0.004" fill="#f9f9f9" d="M 6.5,222.5 C 8.7463,223.21 11.0796,223.71 13.5,224C 11.236,224.236 9.06934,224.736 7,225.5C 6.51722,224.552 6.35055,223.552 6.5,222.5 Z"/></g>
<g><path style="opacity:0.004" fill="#cbcccb" d="M 14.5,223.5 C 16.337,223.639 16.6704,224.306 15.5,225.5C 14.7025,225.043 14.3691,224.376 14.5,223.5 Z"/></g>
<g><path style="opacity:0.011" fill="#d2d0cd" d="M 11.5,199.5 C 12.5,199.5 13.5,199.5 14.5,199.5C 14.5,201.833 14.5,204.167 14.5,206.5C 13.1667,206.833 13.1667,207.167 14.5,207.5C 16.6208,207.675 18.6208,207.341 20.5,206.5C 25.7526,215.325 31.7526,223.658 38.5,231.5C 35.8333,231.5 33.1667,231.5 30.5,231.5C 30.5,228.833 30.5,226.167 30.5,223.5C 28.8333,223.5 27.1667,223.5 25.5,223.5C 23.0306,219.53 20.3639,215.697 17.5,212C 15.3883,209.684 12.7216,208.35 9.5,208C 12.8453,205.811 13.1786,203.311 10.5,200.5C 10.6236,199.893 10.9569,199.56 11.5,199.5 Z"/></g>
<g><path style="opacity:0.004" fill="#fefffe" d="M 265.5,224.5 C 265.897,223.475 266.563,223.308 267.5,224C 266.906,224.464 266.239,224.631 265.5,224.5 Z"/></g>
<g><path style="opacity:0.004" fill="#cbcccb" d="M 270.5,223.5 C 275.021,223.326 275.355,223.993 271.5,225.5C 270.702,225.043 270.369,224.376 270.5,223.5 Z"/></g>
<g><path style="opacity:0.012" fill="#f1ece1" d="M 251.5,223.5 C 251.262,225.404 250.262,226.738 248.5,227.5C 248.738,225.596 249.738,224.262 251.5,223.5 Z"/></g>
<g><path style="opacity:0.004" fill="#fefffe" d="M 6.5,226.5 C 7.52502,226.897 7.69169,227.563 7,228.5C 6.53566,227.906 6.36899,227.239 6.5,226.5 Z"/></g>
<g><path style="opacity:0.004" fill="#fefffe" d="M 23.5,226.5 C 24.8333,227.167 24.8333,227.167 23.5,226.5 Z"/></g>
<g><path style="opacity:0.004" fill="#cbcccb" d="M 270.5,226.5 C 271.833,227.167 271.833,227.167 270.5,226.5 Z"/></g>
<g><path style="opacity:0.004" fill="#f3f3f3" d="M 14.5,229.5 C 16.9572,230.023 19.2906,230.856 21.5,232C 18.4653,232.793 16.2987,234.626 15,237.5C 13.7876,234.784 13.621,232.117 14.5,229.5 Z"/></g>
<g><path style="opacity:0.004" fill="#cbcccb" d="M 22.5,231.5 C 24.7602,232.238 24.9269,233.238 23,234.5C 22.5172,233.552 22.3505,232.552 22.5,231.5 Z"/></g>
<g><path style="opacity:0.007" fill="#f3f2f1" d="M 25.5,223.5 C 27.1667,223.5 28.8333,223.5 30.5,223.5C 30.5,226.167 30.5,228.833 30.5,231.5C 33.1667,231.5 35.8333,231.5 38.5,231.5C 42.1384,235.474 45.8051,239.474 49.5,243.5C 47.4048,242.588 45.4048,241.421 43.5,240C 42.0237,237.357 40.0237,235.19 37.5,233.5C 36.8333,234.5 36.1667,235.5 35.5,236.5C 33.9716,235.139 32.3049,233.972 30.5,233C 29.8875,230.853 29.2208,228.686 28.5,226.5C 27.914,226.709 27.414,227.043 27,227.5C 26.0975,226.299 24.9308,225.465 23.5,225C 24.0442,224.283 24.7109,223.783 25.5,223.5 Z"/></g>
<g><path style="opacity:0.004" fill="#d3d3d3" d="M 265.5,230.5 C 269.353,231.836 269.02,232.836 264.5,233.5C 263.833,233.167 263.167,232.833 262.5,232.5C 263.602,231.824 264.602,231.158 265.5,230.5 Z"/></g>
<g><path style="opacity:0.004" fill="#fefffe" d="M 277.5,231.5 C 278.833,232.167 278.833,232.167 277.5,231.5 Z"/></g>
<g><path style="opacity:1" fill="#e3ac52" d="M 100.5,232.5 C 114.995,230.833 121.828,237.167 121,251.5C 115.786,263.847 107.286,266.68 95.5,260C 89.8736,253.459 89.0403,246.292 93,238.5C 95.1141,235.879 97.6141,233.879 100.5,232.5 Z"/></g>
<g><path style="opacity:0.027" fill="#e9e4da" d="M 248.5,227.5 C 247.581,230.089 245.914,232.089 243.5,233.5C 244.419,230.911 246.086,228.911 248.5,227.5 Z"/></g>
<g><path style="opacity:0.004" fill="#e0e0e0" d="M 37.5,236.5 C 39.7409,237.3 40.7409,238.966 40.5,241.5C 39.1667,241.5 37.8333,241.5 36.5,241.5C 36.366,239.708 36.6993,238.042 37.5,236.5 Z"/></g>
<g><path style="opacity:0.004" fill="#fefffe" d="M 6.5,239.5 C 12.9575,238.908 13.6242,239.908 8.5,242.5C 7.85548,243.732 7.68882,245.065 8,246.5C 6.64849,244.406 6.14849,242.073 6.5,239.5 Z"/></g>
<g><path style="opacity:0.004" fill="#eaeaea" d="M 21.5,238.5 C 24.8788,238.888 28.2121,239.555 31.5,240.5C 31.3333,240.833 31.1667,241.167 31,241.5C 26.92,240.7 22.7533,240.2 18.5,240C 19.7375,239.768 20.7375,239.268 21.5,238.5 Z"/></g>
<g><path style="opacity:0.004" fill="#cbcccb" d="M 257.5,240.5 C 257.897,239.475 258.563,239.308 259.5,240C 258.906,240.464 258.239,240.631 257.5,240.5 Z"/></g>
<g><path style="opacity:0.004" fill="#f2f2f2" d="M 270.5,239.5 C 267.278,239.854 265.112,241.521 264,244.5C 262.795,242.466 262.628,240.466 263.5,238.5C 265.098,239.485 266.765,239.651 268.5,239C 269.274,236.595 269.774,234.095 270,231.5C 271.667,231.167 273.333,230.833 275,230.5C 275.5,231 276,231.5 276.5,232C 274.5,232.333 272.5,232.667 270.5,233C 271.167,233.333 271.833,233.667 272.5,234C 270.808,235.401 270.141,237.234 270.5,239.5 Z"/></g>
<g><path style="opacity:0.004" fill="#cbcccb" d="M 270.5,239.5 C 272.604,239.201 274.604,239.534 276.5,240.5C 274.807,241.228 273.307,242.228 272,243.5C 271.209,242.255 270.709,240.922 270.5,239.5 Z"/></g>
<g><path style="opacity:0.004" fill="#e2e2e2" d="M 278.5,238.5 C 279.713,239.497 279.546,240.497 278,241.5C 277.53,240.423 277.697,239.423 278.5,238.5 Z"/></g>
<g><path style="opacity:0.004" fill="#faf9f8" d="M 240.5,236.5 C 239.833,239.167 238.167,240.833 235.5,241.5C 236.833,239.5 238.5,237.833 240.5,236.5 Z"/></g>
<g><path style="opacity:0.067" fill="#fdf5e6" d="M 235.5,241.5 C 235.167,242.5 234.5,243.167 233.5,243.5C 233.5,242.167 234.167,241.5 235.5,241.5 Z"/></g>
<g><path style="opacity:0.024" fill="#d2cdc4" d="M 49.5,243.5 C 53.4627,246.129 57.1294,249.129 60.5,252.5C 55.9062,250.567 52.2395,247.567 49.5,243.5 Z"/></g>
<g><path style="opacity:0.012" fill="#e5e0d5" d="M 233.5,243.5 C 232.089,245.914 230.089,247.581 227.5,248.5C 228.911,246.086 230.911,244.419 233.5,243.5 Z"/></g>
<g><path style="opacity:0.004" fill="#d6d6d6" d="M 14.5,239.5 C 15.6433,242.976 15.8099,246.642 15,250.5C 14.3333,249.833 13.6667,249.167 13,248.5C 11.6667,249.833 10.3333,249.833 9,248.5C 8.71673,251.742 7.8834,252.076 6.5,249.5C 6.70931,248.914 7.04265,248.414 7.5,248C 9.70528,246.573 11.8719,246.073 14,246.5C 14.4966,244.19 14.6633,241.857 14.5,239.5 Z"/></g>
<g><path style="opacity:0.004" fill="#cbcccb" d="M 22.5,247.5 C 23.525,247.897 23.6917,248.563 23,249.5C 22.5357,248.906 22.369,248.239 22.5,247.5 Z"/></g>
<g><path style="opacity:0.004" fill="#d8d8d8" d="M 29.5,246.5 C 31.0481,246.821 31.7148,247.821 31.5,249.5C 27.7498,249.496 27.0831,248.496 29.5,246.5 Z"/></g>
<g><path style="opacity:0.004" fill="#cbcccb" d="M 38.5,247.5 C 40.337,247.639 40.6704,248.306 39.5,249.5C 38.7025,249.043 38.3691,248.376 38.5,247.5 Z"/></g>
<g><path style="opacity:0.004" fill="#cbcccb" d="M 246.5,247.5 C 251.814,247.239 252.314,247.906 248,249.5C 246.97,249.164 246.47,248.497 246.5,247.5 Z"/></g>
<g><path style="opacity:0.004" fill="#ececec" d="M 270.5,255.5 C 268.843,256.575 267.009,257.242 265,257.5C 261.786,257.262 258.619,257.262 255.5,257.5C 254.585,256.672 253.919,255.672 253.5,254.5C 254.833,252.5 254.833,250.5 253.5,248.5C 253.709,247.914 254.043,247.414 254.5,247C 257.372,246.685 260.205,246.185 263,245.5C 263.95,246.022 264.784,246.689 265.5,247.5C 268.167,247.5 270.833,247.5 273.5,247.5C 275.434,247.099 276.934,246.099 278,244.5C 278.667,246.167 278.667,247.833 278,249.5C 275.184,248.87 272.518,249.536 270,251.5C 267.975,249.275 265.642,248.941 263,250.5C 261.946,248.246 260.446,247.913 258.5,249.5C 256.908,252.446 257.742,254.446 261,255.5C 262.945,254.308 264.945,254.308 267,255.5C 268.653,255.18 269.653,254.18 270,252.5C 270.483,253.448 270.649,254.448 270.5,255.5 Z"/></g>
<g><path style="opacity:0.027" fill="#ede6d8" d="M 227.5,248.5 C 226.738,250.262 225.404,251.262 223.5,251.5C 224.262,249.738 225.596,248.738 227.5,248.5 Z"/></g>
<g><path style="opacity:0.282" fill="#e0dbd0" d="M 60.5,252.5 C 62.8525,253.34 64.8525,254.674 66.5,256.5C 63.8021,256.155 61.8021,254.822 60.5,252.5 Z"/></g>
<g><path style="opacity:0.057" fill="#dad4c8" d="M 223.5,251.5 C 223.027,252.906 222.027,253.573 220.5,253.5C 220.973,252.094 221.973,251.427 223.5,251.5 Z"/></g>
<g><path style="opacity:0.004" fill="#e0e0e0" d="M 277.5,254.5 C 279.337,254.639 279.67,255.306 278.5,256.5C 277.702,256.043 277.369,255.376 277.5,254.5 Z"/></g>
<g><path style="opacity:0.004" fill="#f0f0f0" d="M 6.5,254.5 C 8.86974,254.379 11.2031,254.879 13.5,256C 11.7806,257.057 9.94724,257.89 8,258.5C 7.33333,259.5 7.33333,260.5 8,261.5C 9.50949,262.09 11.0095,262.756 12.5,263.5C 11.5967,265.62 10.2633,265.954 8.5,264.5C 7.80762,265.025 7.30762,265.692 7,266.5C 6.50115,262.514 6.33449,258.514 6.5,254.5 Z"/></g>
<g><path style="opacity:0.004" fill="#e7e7e7" d="M 22.5,254.5 C 23.7759,255.386 23.7759,256.386 22.5,257.5C 21.4376,256.575 21.4376,255.575 22.5,254.5 Z"/></g>
<g><path style="opacity:0.004" fill="#d5d5d5" d="M 37.5,254.5 C 39.9732,254.947 40.1399,255.947 38,257.5C 37.5172,256.552 37.3505,255.552 37.5,254.5 Z"/></g>
<g><path style="opacity:0.004" fill="#eeeae4" d="M 219.5,254.5 C 219.027,255.906 218.027,256.573 216.5,256.5C 216.973,255.094 217.973,254.427 219.5,254.5 Z"/></g>
<g><path style="opacity:0.004" fill="#f2f2f2" d="M 246.5,254.5 C 247.922,254.709 249.255,255.209 250.5,256C 248.537,256.844 247.204,256.344 246.5,254.5 Z"/></g>
<g><path style="opacity:0.004" fill="#cbcccb" d="M 270.5,255.5 C 277.473,255.007 277.973,256.007 272,258.5C 270.961,257.756 270.461,256.756 270.5,255.5 Z"/></g>
<g><path style="opacity:0.004" fill="#cbcccb" d="M 14.5,256.5 C 15.525,256.897 15.6917,257.563 15,258.5C 14.5357,257.906 14.369,257.239 14.5,256.5 Z"/></g>
<g><path style="opacity:0.11" fill="#e1dacd" d="M 216.5,256.5 C 215.341,258.25 213.674,259.25 211.5,259.5C 212.659,257.75 214.326,256.75 216.5,256.5 Z"/></g>
<g><path style="opacity:0.035" fill="#f1eadc" d="M 66.5,256.5 C 70.173,258 73.5063,260 76.5,262.5C 72.4945,261.502 69.1612,259.502 66.5,256.5 Z"/></g>
<g><path style="opacity:0.037" fill="#d5cec3" d="M 209.5,260.5 C 209.027,261.906 208.027,262.573 206.5,262.5C 206.973,261.094 207.973,260.427 209.5,260.5 Z"/></g>
<g><path style="opacity:0.004" fill="#eaeaea" d="M 30.5,262.5 C 31.5735,263.251 31.7401,264.251 31,265.5C 29.2716,264.648 29.105,263.648 30.5,262.5 Z"/></g>
<g><path style="opacity:0.2" fill="#f6f2ed" d="M 76.5,262.5 C 78.8185,262.992 80.8185,263.992 82.5,265.5C 79.911,265.539 77.911,264.539 76.5,262.5 Z"/></g>
<g><path style="opacity:0.004" fill="#cbcccb" d="M 232.5,264.5 C 233.251,263.427 234.251,263.26 235.5,264C 234.552,264.483 233.552,264.649 232.5,264.5 Z"/></g>
<g><path style="opacity:0.004" fill="#fafafa" d="M 237.5,263.5 C 239.857,263.337 242.19,263.503 244.5,264C 242.658,265.344 240.992,266.844 239.5,268.5C 238.438,266.978 237.771,265.312 237.5,263.5 Z"/></g>
<g><path style="opacity:0.004" fill="#dcdcdc" d="M 248.5,262.5 C 250.806,262.993 253.139,263.326 255.5,263.5C 255.33,264.822 255.663,265.989 256.5,267C 255.975,267.692 255.308,268.192 254.5,268.5C 254.446,267.47 254.112,266.303 253.5,265C 250.975,264.104 248.808,264.604 247,266.5C 246.516,264.807 247.016,263.473 248.5,262.5 Z"/></g>
<g><path style="opacity:0.004" fill="#fefffe" d="M 257.5,263.5 C 262.1,263.345 262.433,264.012 258.5,265.5C 256.279,265.561 255.946,264.895 257.5,263.5 Z"/></g>
<g><path style="opacity:0.004" fill="#cbcccb" d="M 262.5,263.5 C 268.313,263.344 268.646,264.011 263.5,265.5C 262.702,265.043 262.369,264.376 262.5,263.5 Z"/></g>
<g><path style="opacity:0.004" fill="#cbcccb" d="M 269.5,263.5 C 270.833,264.167 270.833,264.167 269.5,263.5 Z"/></g>
<g><path style="opacity:0.004" fill="#f9f9f9" d="M 275.5,262.5 C 277.363,262.846 278.196,263.846 278,265.5C 276.438,265.741 274.938,265.241 273.5,264C 274.416,263.722 275.082,263.222 275.5,262.5 Z"/></g>
<g><path style="opacity:0.031" fill="#f3eee4" d="M 200.5,265.5 C 198.574,267.293 196.241,268.293 193.5,268.5C 195.426,266.707 197.759,265.707 200.5,265.5 Z"/></g>
<g><path style="opacity:0.004" fill="#cbcccb" d="M 234.5,270.5 C 235.833,271.167 235.833,271.167 234.5,270.5 Z"/></g>
<g><path style="opacity:0.004" fill="#cbcccb" d="M 236.5,271.5 C 236.897,270.475 237.563,270.308 238.5,271C 237.906,271.464 237.239,271.631 236.5,271.5 Z"/></g>
<g><path style="opacity:0.004" fill="#eaeaea" d="M 38.5,270.5 C 39.5735,271.251 39.7401,272.251 39,273.5C 37.2716,272.648 37.105,271.648 38.5,270.5 Z"/></g>
<g><path style="opacity:0.004" fill="#cbcccb" d="M 50.5,272.5 C 50.8966,271.475 51.5632,271.308 52.5,272C 51.9056,272.464 51.2389,272.631 50.5,272.5 Z"/></g>
<g><path style="opacity:0.004" fill="#ededed" d="M 53.5,272.5 C 53.8966,271.475 54.5632,271.308 55.5,272C 54.9056,272.464 54.2389,272.631 53.5,272.5 Z"/></g>
<g><path style="opacity:0.022" fill="#eae5db" d="M 193.5,268.5 C 189.336,271.334 184.669,273.001 179.5,273.5C 183.799,271.065 188.466,269.398 193.5,268.5 Z"/></g>
<g><path style="opacity:0.004" fill="#ededed" d="M 231.5,273.5 C 230.596,272.791 230.263,271.791 230.5,270.5C 231.552,270.351 232.552,270.517 233.5,271C 232.619,271.708 231.953,272.542 231.5,273.5 Z"/></g>
<g><path style="opacity:0.004" fill="#d7d7d7" d="M 241.5,270.5 C 243.5,271.626 245.5,271.793 247.5,271C 245.386,272.518 243.053,272.851 240.5,272C 241.056,271.617 241.389,271.117 241.5,270.5 Z"/></g>
<g><path style="opacity:0.004" fill="#cbcccb" d="M 273.5,272.5 C 274.077,271.227 274.743,271.227 275.5,272.5C 275.03,273.463 274.363,273.463 273.5,272.5 Z"/></g>
<g><path style="opacity:0.004" fill="#ededed" d="M 277.5,272.5 C 277.897,271.475 278.563,271.308 279.5,272C 278.906,272.464 278.239,272.631 277.5,272.5 Z"/></g>
<g><path style="opacity:0.004" fill="#cbcccb" d="M 46.5,272.5 C 47.8333,273.167 47.8333,273.167 46.5,272.5 Z"/></g>
<g><path style="opacity:0.004" fill="#fefffe" d="M 231.5,273.5 C 232.833,274.167 232.833,274.167 231.5,273.5 Z"/></g>
<g><path style="opacity:0.067" fill="#e4e1dc" d="M 82.5,265.5 C 93.4324,269.643 104.432,273.31 115.5,276.5C 107.347,275.395 99.3471,273.562 91.5,271C 88.4036,269.128 85.4036,267.295 82.5,265.5 Z"/></g>
<g><path style="opacity:0.11" fill="#e8e2d7" d="M 179.5,273.5 C 173.548,276.092 167.214,277.425 160.5,277.5C 166.614,275.676 172.947,274.343 179.5,273.5 Z"/></g>
<g><path style="opacity:0.02" fill="#dbdbda" d="M 115.5,276.5 C 117.735,276.205 119.735,276.539 121.5,277.5C 121.565,277.938 121.399,278.272 121,278.5C 119.052,277.891 117.218,277.224 115.5,276.5 Z"/></g>
<g><path style="opacity:0.251" fill="#ded5c4" d="M 122.5,277.5 C 126.702,277.183 130.702,277.517 134.5,278.5C 134.265,279.097 133.765,279.43 133,279.5C 129.346,278.938 125.846,278.271 122.5,277.5 Z"/></g>
<g><path style="opacity:0.004" fill="#d8d8d8" d="M 238.5,278.5 C 241.001,278.511 241.168,279.178 239,280.5C 238.536,279.906 238.369,279.239 238.5,278.5 Z"/></g>
<g><path style="opacity:0.004" fill="#e7e7e7" d="M 6.5,271.5 C 7.97782,271.238 9.31116,271.571 10.5,272.5C 10.1543,273.696 9.65431,273.696 9,272.5C 8.19234,274.579 8.35901,276.579 9.5,278.5C 11.5352,279.041 13.5352,279.708 15.5,280.5C 15.1667,280.833 14.8333,281.167 14.5,281.5C 10.7963,280.953 6.79635,280.619 2.5,280.5C 3.28881,278.512 4.45548,278.179 6,279.5C 6.49742,276.854 6.66409,274.187 6.5,271.5 Z"/></g>
<g><path style="opacity:0.004" fill="#f0f0f0" d="M 30.5,277.5 C 32.0383,279.522 33.8716,279.855 36,278.5C 37.8261,279.01 37.9928,279.844 36.5,281C 32.3929,281.289 28.0595,280.955 23.5,280C 25.9269,279.098 28.2603,278.264 30.5,277.5 Z"/></g>
<g><path style="opacity:0.004" fill="#d7d7d7" d="M 46.5,277.5 C 48.8519,278.543 49.0185,279.876 47,281.5C 43.9349,281.828 41.1016,281.495 38.5,280.5C 40.5235,279.145 42.5235,278.812 44.5,279.5C 45.5223,279.145 46.189,278.478 46.5,277.5 Z"/></g>
<g><path style="opacity:0.004" fill="#f4f4f4" d="M 52.5,278.5 C 53.0431,278.56 53.3764,278.893 53.5,279.5C 52.635,280.583 51.635,280.749 50.5,280C 51.4158,279.722 52.0825,279.222 52.5,278.5 Z"/></g>
<g><path style="opacity:0.004" fill="#cbcccb" d="M 56.5,280.5 C 55.9232,281.773 55.2565,281.773 54.5,280.5C 54.9698,279.537 55.6365,279.537 56.5,280.5 Z"/></g>
<g><path style="opacity:0.004" fill="#cbcccb" d="M 56.5,280.5 C 57.2506,279.427 58.2506,279.26 59.5,280C 58.552,280.483 57.552,280.649 56.5,280.5 Z"/></g>
<g><path style="opacity:0.004" fill="#cbcccb" d="M 231.5,280.5 C 232.601,279.402 233.934,279.235 235.5,280C 234.207,280.49 232.873,280.657 231.5,280.5 Z"/></g>
<g><path style="opacity:0.004" fill="#fefffe" d="M 242.5,279.5 C 243.833,280.167 243.833,280.167 242.5,279.5 Z"/></g>
<g><path style="opacity:0.004" fill="#cbcccb" d="M 247.5,280.5 C 248.601,279.402 249.934,279.235 251.5,280C 250.207,280.49 248.873,280.657 247.5,280.5 Z"/></g>
<g><path style="opacity:0.004" fill="#fefffe" d="M 254.5,279.5 C 255.525,279.897 255.692,280.563 255,281.5C 254.536,280.906 254.369,280.239 254.5,279.5 Z"/></g>
<g><path style="opacity:0.004" fill="#dddddd" d="M 257.5,280.5 C 259.966,279.366 262.633,279.199 265.5,280C 264.892,280.87 264.059,281.37 263,281.5C 261.234,280.767 259.401,280.433 257.5,280.5 Z"/></g>
<g><path style="opacity:0.004" fill="#f2f2f2" d="M 269.5,280.5 C 270.077,279.227 270.743,279.227 271.5,280.5C 271.03,281.463 270.363,281.463 269.5,280.5 Z"/></g>
<g><path style="opacity:0.004" fill="#f7f7f7" d="M 275.5,278.5 C 276.995,278.415 277.995,279.081 278.5,280.5C 276.693,281.799 275.027,281.632 273.5,280C 274.416,279.722 275.082,279.222 275.5,278.5 Z"/></g>
<g><path style="opacity:0.004" fill="#fefffe" d="M -0.5,284.5 C 0.166667,284.5 0.5,284.833 0.5,285.5C 0.166667,285.167 -0.166667,284.833 -0.5,284.5 Z"/></g>
</svg>
