<svg id="visual" viewBox="0 0 900 450" width="900" height="450" xmlns="http://www.w3.org/2000/svg" xmlns:xlink="http://www.w3.org/1999/xlink" version="1.1"><rect x="0" y="0" width="900" height="450" fill="#001220"></rect><path d="M0 162L129 166L257 150L386 161L514 158L643 186L771 135L900 178L900 0L771 0L643 0L514 0L386 0L257 0L129 0L0 0Z" fill="#f5730a"></path><path d="M0 121L129 110L257 138L386 148L514 117L643 133L771 92L900 121L900 0L771 0L643 0L514 0L386 0L257 0L129 0L0 0Z" fill="#db393b"></path><path d="M0 115L129 109L257 66L386 83L514 114L643 110L771 67L900 81L900 0L771 0L643 0L514 0L386 0L257 0L129 0L0 0Z" fill="#ab0650"></path><path d="M0 88L129 45L257 65L386 83L514 78L643 69L771 53L900 69L900 0L771 0L643 0L514 0L386 0L257 0L129 0L0 0Z" fill="#6d0354"></path><path d="M0 26L129 30L257 40L386 45L514 52L643 19L771 43L900 34L900 0L771 0L643 0L514 0L386 0L257 0L129 0L0 0Z" fill="#2a0b45"></path></svg>