<svg id="visual" viewBox="0 0 900 450" width="900" height="450" xmlns="http://www.w3.org/2000/svg" xmlns:xlink="http://www.w3.org/1999/xlink" version="1.1"><rect x="0" y="0" width="900" height="450" fill="#001220"></rect><path d="M0 269L129 326L257 327L386 324L514 284L643 325L771 291L900 305L900 451L771 451L643 451L514 451L386 451L257 451L129 451L0 451Z" fill="#f5730a"></path><path d="M0 322L129 348L257 312L386 301L514 330L643 301L771 299L900 315L900 451L771 451L643 451L514 451L386 451L257 451L129 451L0 451Z" fill="#db393b"></path><path d="M0 339L129 369L257 360L386 355L514 376L643 368L771 336L900 338L900 451L771 451L643 451L514 451L386 451L257 451L129 451L0 451Z" fill="#ab0650"></path><path d="M0 391L129 381L257 389L386 395L514 394L643 385L771 370L900 397L900 451L771 451L643 451L514 451L386 451L257 451L129 451L0 451Z" fill="#6d0354"></path><path d="M0 403L129 422L257 404L386 426L514 406L643 430L771 402L900 397L900 451L771 451L643 451L514 451L386 451L257 451L129 451L0 451Z" fill="#2a0b45"></path></svg>